<svg height='100px' width='100px'  fill="#000000" xmlns="http://www.w3.org/2000/svg" xmlns:xlink="http://www.w3.org/1999/xlink" version="1.1" x="0px" y="0px" viewBox="0 0 100 100" style="enable-background:new 0 0 100 100;" xml:space="preserve"><style type="text/css">
	.st0{display:none;opacity:0.46;}
</style><g><path d="M90.2,56.8l-7.4-25.6c0-0.1,0-0.1-0.1-0.2l-0.9-2.7C76.5,13.9,62.4,4.2,47,4.2C26.5,4.2,9.8,20.8,9.8,41.3   c0,11.4,5.1,21.9,13.9,29v14.9c0,1.2,0.8,2.2,2,2.4L61,95.2c0.2,0,0.3,0.1,0.5,0.1c0.6,0,1.1-0.2,1.6-0.6c0.6-0.5,0.9-1.2,0.9-1.9   V78.5h13.7c1.4,0,2.5-1.1,2.5-2.5V60h7.5c0.8,0,1.5-0.4,2-1C90.2,58.4,90.4,57.6,90.2,56.8z M77.7,55c-1.4,0-2.5,1.1-2.5,2.5v16   H61.5c-1.4,0-2.5,1.1-2.5,2.5v13.7l-30.3-6.4V69.1c0-0.8-0.4-1.5-1-2C19.5,61,14.8,51.6,14.8,41.3C14.8,23.6,29.3,9.2,47,9.2   c13.4,0,25.5,8.4,30.1,20.9l0.8,2.5c0,0,0,0.1,0,0.1L84.4,55H77.7z M46.2,49.2h-1.7c-0.8,0-1.5,0.7-1.5,1.5v2.1   c0,0.8,0.7,1.5,1.5,1.5h1.7c0.8,0,1.5-0.7,1.5-1.5v-2.1C47.6,49.9,47,49.2,46.2,49.2z M45.7,17.8c-2.8,0-5.2,0.9-7.2,2.8   c-1.7,1.6-2.7,4-3,7.1c-0.1,0.9,0.6,1.6,1.5,1.6h1.8c0.8,0,1.4-0.6,1.5-1.4c0.2-2,0.7-3.4,1.5-4.4c1.1-1.2,2.4-1.8,3.9-1.8   c1.5,0,2.7,0.5,3.6,1.4c0.8,0.9,1.3,2.3,1.3,4.1c0,1-0.2,2-0.6,3.1s-1.2,2.1-2.3,3.1c-1.5,1.4-2.6,2.7-3.3,3.9   c-0.6,1.2-0.9,2.4-0.9,3.7v0.6c0,0.8,0.7,1.5,1.5,1.5h0.8c0.8,0,1.5-0.7,1.5-1.5c0-0.4,0.3-1.2,0.8-2.3c0.6-1.1,1.5-2.2,3-3.4   c1.4-1.1,2.5-2.5,3.4-4c0.8-1.5,1.3-3.2,1.3-5.1c0-2.7-0.9-4.9-2.6-6.5C51.3,18.6,48.8,17.8,45.7,17.8z"></path></g></svg>