<svg height='100px' width='100px'  fill="#000000" xmlns="http://www.w3.org/2000/svg" xmlns:xlink="http://www.w3.org/1999/xlink" version="1.1" x="0px" y="0px" viewBox="0 0 100 100" enable-background="new 0 0 100 100" xml:space="preserve"><path d="M59.853,26.056c0.282,0.833,1.061,1.357,1.894,1.357c0.213,0,0.43-0.034,0.643-0.106c1.046-0.355,1.606-1.491,1.251-2.537  c-0.781-2.3-1.83-4.516-3.119-6.583c-0.584-0.938-1.817-1.224-2.755-0.64s-1.224,1.817-0.64,2.755  C58.252,22.11,59.17,24.046,59.853,26.056z"></path><path d="M38.326,62.527c-1.969,0.35-4.013,0.484-6.008,0.409c-1.076-0.04-2.032,0.819-2.074,1.924  c-0.042,1.104,0.819,2.032,1.923,2.074c0.413,0.016,0.828,0.023,1.246,0.023c1.882,0,3.77-0.165,5.611-0.491  c1.087-0.193,1.813-1.231,1.62-2.318S39.417,62.342,38.326,62.527z"></path><path d="M67.742,62.935c-1.984,0.079-4.01-0.051-5.957-0.388c-1.087-0.184-2.124,0.541-2.313,1.629s0.54,2.123,1.629,2.313  c1.796,0.312,3.642,0.47,5.485,0.47c0.441,0,0.88-0.01,1.317-0.027c1.104-0.044,1.962-0.976,1.917-2.079  C69.777,63.749,68.891,62.901,67.742,62.935z"></path><path d="M98.503,35.041c0-17.599-14.317-31.916-31.916-31.916c-5.9,0-11.598,1.622-16.589,4.667  c-4.993-3.045-10.694-4.667-16.584-4.667c-17.599,0-31.917,14.317-31.917,31.916c-0.001,11.806,6.35,22.408,16.647,28.014  c-0.037,0.633-0.061,1.268-0.061,1.903c0,17.599,14.317,31.917,31.916,31.917c17.599,0,31.917-14.318,31.917-31.917  c0-0.634-0.024-1.27-0.062-1.902C92.152,57.45,98.503,46.848,98.503,35.041z M81.308,58.752c-0.221-1.12-0.497-2.229-0.836-3.314  c-0.33-1.055-1.452-1.641-2.505-1.313c-1.055,0.329-1.643,1.45-1.313,2.505c0.415,1.329,0.729,2.694,0.94,4.075  c-1.282,0.551-2.605,1.005-3.949,1.354c-1.069,0.277-1.711,1.37-1.433,2.438c0.234,0.9,1.045,1.497,1.935,1.497  c0.166,0,0.336-0.021,0.504-0.064c1.104-0.287,2.193-0.64,3.264-1.046c0,0.024,0.002,0.05,0.002,0.074  c0,15.394-12.523,27.917-27.917,27.917c-15.393,0-27.916-12.523-27.916-27.917c0-0.024,0.002-0.05,0.002-0.074  c1.071,0.406,2.162,0.76,3.266,1.047c0.169,0.044,0.338,0.064,0.505,0.064c0.889,0,1.7-0.597,1.934-1.497  c0.278-1.068-0.363-2.161-1.432-2.438c-1.346-0.35-2.67-0.805-3.954-1.355c0.211-1.382,0.526-2.747,0.941-4.073  c0.329-1.055-0.259-2.177-1.313-2.506c-1.055-0.329-2.176,0.258-2.505,1.313c-0.339,1.085-0.615,2.193-0.836,3.313  c-8.198-5.072-13.195-13.917-13.194-23.71c0-15.393,12.523-27.916,27.917-27.916c4.56,0,8.987,1.114,12.973,3.211  c-0.894,0.731-1.751,1.506-2.558,2.328c-0.774,0.788-0.764,2.054,0.024,2.828c0.389,0.383,0.896,0.574,1.402,0.574  c0.518,0,1.035-0.2,1.426-0.598c1.027-1.044,2.142-2.008,3.321-2.88c1.12,0.829,2.179,1.741,3.162,2.725  c0.391,0.391,0.902,0.586,1.415,0.586c0.512,0,1.023-0.195,1.413-0.585c0.782-0.781,0.782-2.047,0.002-2.829  c-0.755-0.755-1.549-1.474-2.376-2.151c3.982-2.096,8.406-3.209,12.97-3.209c15.393,0,27.916,12.523,27.916,27.916  C94.503,44.835,89.505,53.681,81.308,58.752z"></path><path d="M37.587,27.389c0.211,0.071,0.427,0.105,0.638,0.105c0.835,0,1.615-0.527,1.896-1.363c0.668-1.987,1.567-3.905,2.671-5.7  c0.579-0.941,0.285-2.172-0.656-2.751c-0.942-0.579-2.173-0.286-2.751,0.656c-1.262,2.052-2.291,4.246-3.055,6.52  C35.978,25.902,36.541,27.037,37.587,27.389z"></path><path d="M69.481,39.676c-1.327-1.025-2.741-1.942-4.213-2.745c0.036-0.628,0.061-1.259,0.061-1.89c0-1.04-0.051-2.095-0.152-3.136  c-0.106-1.099-1.08-1.906-2.183-1.798c-1.1,0.106-1.904,1.084-1.798,2.184c0.088,0.913,0.133,1.839,0.133,2.75  c0,0.027-0.002,0.054-0.002,0.081c-3.605-1.375-7.401-2.081-11.328-2.081c-3.927,0-7.723,0.707-11.328,2.081  c0-0.027-0.002-0.054-0.002-0.081c0-0.918,0.045-1.843,0.134-2.749c0.107-1.1-0.697-2.078-1.796-2.186  c-1.097-0.107-2.078,0.696-2.186,1.796c-0.101,1.035-0.152,2.091-0.152,3.138c0,0.631,0.024,1.262,0.06,1.89  c-1.472,0.804-2.886,1.722-4.215,2.747c-0.875,0.675-1.037,1.931-0.362,2.805c0.394,0.511,0.986,0.778,1.585,0.778  c0.427,0,0.856-0.136,1.22-0.417c0.746-0.576,1.521-1.113,2.322-1.611c1.43,7.288,5.348,13.813,11.119,18.521  c-0.751,0.396-1.518,0.762-2.298,1.085c-1.021,0.423-1.505,1.593-1.083,2.613c0.319,0.77,1.063,1.235,1.849,1.235  c0.255,0,0.514-0.05,0.764-0.153c1.507-0.624,2.971-1.371,4.372-2.226c1.448,0.883,2.966,1.655,4.532,2.294  c0.247,0.102,0.503,0.149,0.754,0.149c0.789,0,1.536-0.471,1.853-1.246c0.417-1.022-0.073-2.189-1.097-2.606  c-0.833-0.34-1.65-0.724-2.448-1.145c5.771-4.711,9.693-11.241,11.123-18.522c0.799,0.497,1.574,1.034,2.319,1.609  c0.363,0.281,0.794,0.417,1.221,0.417c0.598,0,1.19-0.268,1.584-0.778C70.518,41.607,70.356,40.351,69.481,39.676z M49.996,57.492  c-5.953-4.399-9.889-10.908-11.002-18.194c3.475-1.496,7.169-2.257,11.005-2.257c3.837,0,7.53,0.762,11.004,2.257  C59.893,46.576,55.951,53.09,49.996,57.492z"></path><path d="M74.193,44.141c-0.721-0.837-1.982-0.932-2.821-0.21c-0.837,0.721-0.931,1.984-0.21,2.821  c1.237,1.436,2.331,3.003,3.251,4.656c0.366,0.657,1.048,1.028,1.75,1.028c0.329,0,0.663-0.081,0.971-0.253  c0.965-0.537,1.313-1.755,0.775-2.72C76.856,47.572,75.606,45.781,74.193,44.141z"></path><path d="M25.802,44.145c-1.414,1.642-2.663,3.433-3.714,5.322c-0.537,0.965-0.189,2.183,0.776,2.72  c0.308,0.171,0.642,0.252,0.97,0.252c0.703,0,1.384-0.37,1.75-1.028c0.919-1.653,2.013-3.219,3.25-4.656  c0.721-0.837,0.626-2.1-0.21-2.821C27.785,43.213,26.522,43.309,25.802,44.145z"></path></svg>