<svg height='100px' width='100px'  fill="#000000" xmlns="http://www.w3.org/2000/svg" xmlns:xlink="http://www.w3.org/1999/xlink" version="1.1" x="0px" y="0px" viewBox="0 0 100 100" style="enable-background:new 0 0 100 100;" xml:space="preserve"><path d="M89,26.14h-8v-6.11c0-0.55-0.45-1-1-1H57.71c-0.55,0-1,0.45-1,1v60.04c0,0.55,0.45,1,1,1h7.79V89h-31v-7.92h7.79  c0.55,0,1-0.45,1-1V20.04c0-0.55-0.45-1-1-1H20c-0.55,0-1,0.45-1,1v6.11h-8V11h8.92c0.03,0,0.05,0,0.08,0h60c0.03,0,0.05,0,0.08,0  H89V26.14z"></path></svg>